<?xml version="1.0" standalone="no"?>
<!DOCTYPE svg PUBLIC "-//W3C//DTD SVG 20010904//EN"
 "http://www.w3.org/TR/2001/REC-SVG-20010904/DTD/svg10.dtd">
<svg version="1.0" xmlns="http://www.w3.org/2000/svg"
 width="480.000000pt" height="480.000000pt" viewBox="0 0 480.000000 480.000000"
 preserveAspectRatio="xMidYMid meet">
<metadata>
Created by potrace 1.11, written by Peter Selinger 2001-2013
</metadata>
<g transform="translate(0.000000,480.000000) scale(0.100000,-0.100000)"
fill="#000000" stroke="none">
<path d="M2210 4793 c-178 -16 -504 -84 -571 -118 -16 -9 -29 -13 -29 -11 0 4
-94 -31 -155 -59 -16 -7 -55 -25 -86 -39 -31 -14 -100 -50 -153 -80 -531 -301
-935 -806 -1113 -1391 -28 -94 -69 -277 -78 -354 -4 -30 -9 -63 -12 -75 -8
-37 -11 -399 -3 -476 15 -141 21 -185 45 -295 171 -790 726 -1440 1480 -1732
196 -77 384 -123 610 -150 130 -15 480 -8 600 12 43 7 96 16 125 21 42 8 222
54 232 60 4 3 18 7 31 9 33 6 211 77 302 121 357 169 683 444 918 773 102 143
171 264 250 441 30 67 66 160 61 160 -2 0 2 13 10 29 16 29 75 250 82 306 3
17 7 41 10 55 19 82 32 279 29 451 -1 108 -4 200 -7 205 -3 5 -9 38 -12 74
-15 143 -72 365 -136 530 -223 572 -646 1032 -1193 1299 -97 47 -257 111 -278
111 -10 0 -20 4 -23 9 -3 5 -16 11 -28 14 -13 2 -68 16 -123 30 -112 29 -120
31 -260 53 -91 15 -431 26 -525 17z"/>
</g>
</svg>
